<?xml version="1.0" standalone="no"?>
<!DOCTYPE svg PUBLIC "-//W3C//DTD SVG 20010904//EN"
 "http://www.w3.org/TR/2001/REC-SVG-20010904/DTD/svg10.dtd">
<svg version="1.0" xmlns="http://www.w3.org/2000/svg"
 width="700.000000pt" height="700.000000pt" viewBox="0 0 700.000000 700.000000"
 preserveAspectRatio="xMidYMid meet">
<metadata>
Created by potrace 1.14, written by Peter Selinger 2001-2017
</metadata>
<g transform="translate(0.000000,700.000000) scale(0.100000,-0.100000)"
fill="#000000" stroke="none">
<path d="M5713 6809 c-184 -46 -340 -176 -454 -379 -63 -110 -144 -338 -164
-461 -4 -24 -9 -51 -10 -59 -2 -8 -8 -51 -14 -95 -7 -44 -15 -96 -18 -115 -4
-19 -7 -372 -8 -785 -1 -412 -4 -768 -8 -790 -3 -22 -8 -71 -12 -110 -6 -76
-14 -145 -20 -185 -3 -14 -7 -43 -10 -65 -68 -447 -253 -810 -525 -1027 -332
-267 -812 -308 -1120 -98 -100 69 -192 172 -231 258 -12 26 -27 61 -35 77 -60
132 -74 357 -33 545 30 138 115 325 207 454 71 100 228 258 307 310 33 21 72
47 86 56 92 63 392 160 542 176 34 3 65 8 69 10 10 6 303 5 363 -1 108 -11
230 -33 303 -54 17 -5 32 -9 33 -8 10 19 21 459 11 472 -26 37 -421 159 -612
189 -19 3 -46 8 -60 11 -31 7 -66 11 -155 20 -38 4 -79 9 -90 11 -27 5 -321 5
-367 -1 -247 -28 -487 -100 -722 -217 -402 -199 -704 -493 -908 -884 -70 -135
-160 -375 -182 -484 -3 -14 -12 -58 -21 -98 -48 -223 -52 -559 -10 -762 3 -14
8 -41 11 -60 17 -112 102 -356 171 -495 110 -218 305 -463 478 -600 28 -22 52
-43 55 -46 18 -20 192 -126 275 -168 201 -101 404 -160 645 -188 82 -9 314
-10 401 0 489 52 930 335 1235 792 72 107 164 259 164 270 0 1 20 45 44 96 69
147 166 420 191 537 2 9 12 55 23 102 20 84 45 233 57 340 12 104 13 115 20
180 10 112 14 153 20 225 3 39 8 97 10 130 3 33 7 94 10 135 3 41 7 102 10
135 2 33 7 98 10 145 3 47 8 110 10 140 3 30 7 93 10 140 3 47 7 105 10 130 2
25 7 79 11 120 9 111 19 180 36 265 5 28 12 64 15 80 12 70 76 262 108 323 41
81 64 108 100 122 41 16 52 13 91 -27 74 -74 127 -237 125 -384 -3 -198 -91
-372 -221 -440 -34 -17 -62 -23 -112 -24 l-68 0 -9 -50 c-18 -90 -24 -141 -37
-310 -3 -44 -8 -83 -11 -87 -4 -8 5 -9 87 -12 195 -8 425 93 596 261 80 79
178 217 232 327 48 98 97 222 106 269 2 12 9 42 16 67 27 99 39 227 35 390 -4
176 -5 187 -36 323 -96 424 -375 794 -682 907 -134 49 -259 59 -374 29z"/>
<path d="M2585 4906 c-495 -175 -836 -381 -1135 -685 -112 -115 -140 -147
-207 -238 -202 -273 -332 -560 -402 -883 -20 -94 -23 -110 -40 -245 -12 -90
-6 -459 8 -550 29 -178 77 -370 116 -460 7 -16 16 -41 20 -55 11 -38 83 -188
122 -255 157 -268 378 -493 635 -649 230 -140 533 -244 823 -283 78 -10 481
-10 563 0 378 47 749 183 1067 392 105 70 256 185 225 172 -206 -84 -271 -107
-355 -121 -61 -11 -151 -27 -175 -32 -37 -6 -194 -16 -280 -16 -372 -4 -781
100 -1085 275 -441 253 -751 668 -880 1176 -13 53 -26 110 -29 126 -2 17 -7
49 -11 73 -4 23 -9 54 -11 70 -11 66 -10 394 1 477 20 147 25 175 51 285 145
600 528 1135 1012 1411 51 28 92 53 92 55 0 2 -1 4 -2 3 -2 0 -57 -20 -123
-43z"/>
<path d="M1779 4626 c-578 -199 -1041 -567 -1294 -1031 -15 -27 -31 -54 -35
-60 -4 -5 -30 -62 -58 -125 -44 -98 -70 -172 -122 -335 -17 -56 -59 -279 -67
-360 -10 -102 -10 -460 0 -545 10 -77 15 -116 22 -150 3 -14 7 -36 10 -50 55
-294 175 -598 325 -819 300 -447 781 -746 1360 -845 172 -30 452 -39 635 -22
240 23 513 92 770 196 99 39 316 148 347 173 22 18 22 18 1 8 -12 -6 -75 -29
-140 -50 -167 -56 -331 -96 -473 -115 -19 -3 -71 -10 -115 -17 -116 -16 -470
-18 -601 -3 -213 25 -432 79 -599 148 -539 224 -895 624 -1079 1216 -186 600
-115 1241 202 1810 132 237 298 447 503 635 97 89 224 188 308 240 9 6 27 17
41 26 34 22 115 68 170 95 70 35 27 27 -111 -20z"/>
</g>
</svg>
