<?xml version="1.0" encoding="utf-8"?>
<!-- Generator: Adobe Illustrator 26.0.3, SVG Export Plug-In . SVG Version: 6.00 Build 0)  -->
<svg version="1.1" xmlns="http://www.w3.org/2000/svg" xmlns:xlink="http://www.w3.org/1999/xlink" x="0px" y="0px"
	 viewBox="0 0 512 512" style="enable-background:new 0 0 512 512;" xml:space="preserve">
<style type="text/css">
	.st0{fill:#FF00D2;}
	.st1{fill:#FFFFFF;}
</style>
<g id="Layer_2">
	<circle class="st0" cx="256" cy="256" r="255"/>
</g>
<g id="Layer_3">
	<g>
		<g>
			<path class="st1" d="M296.1,207.9c-20.1-19.5-63.1-19.8-89.8,47.6c-28,70.8-56.6,95.5-83.9,103.3c-27.3,7.8-59.9-2.9-72.2-27.2
				c-16.4-32.3-2.6-71.1,33.2-85.4c22.6-9,50.9,0.2,70.1,16.9c-1.8,7.3-9.8,25.4-13.5,29c-6.5-15-33.5-18-35.8,3
				c-1.7,15.6,23.5,17.7,35,5.4s23.3-43.7,34.3-83.6c16.1-58.2,74.8-104.2,137.6-85.8c78.5,23,99.2,110.6,58.8,169.7
				c-25.4,37.3-66.8,54.9-109.7,52.5c-29.5-1.6-68.3-15.3-84.9-29.8c7.6-9.1,13.3-16.5,19.9-27.3c19.3,13,53.9,20.1,82.3,5.3
				C315.1,282.2,320.8,231.9,296.1,207.9z"/>
		</g>
		<g>
			<path class="st1" d="M270,122.3c80.7-38.5,168.8,5.4,186.6,81.8C477.1,292,414,357.4,299.7,356.5
				c63.7-2.5,121.3-80.1,102.4-150.7C383.7,136.5,311.6,111.2,270,122.3z"/>
		</g>
	</g>
</g>
</svg>
