<?xml version="1.0" encoding="utf-8"?>
<!-- Generator: Adobe Illustrator 26.0.3, SVG Export Plug-In . SVG Version: 6.00 Build 0)  -->
<svg version="1.1" id="Layer_1" xmlns="http://www.w3.org/2000/svg" xmlns:xlink="http://www.w3.org/1999/xlink" x="0px" y="0px"
	 viewBox="0 0 512 311.8" style="enable-background:new 0 0 512 311.8;" xml:space="preserve">
<style type="text/css">
	.st0{fill:#FF00D2;}
</style>
<g>
	<path class="st0" d="M310,124.5c-24.1-23.4-75.9-23.8-108,57.2c-33.7,85.1-68,114.8-100.9,124.2s-72-3.5-86.8-32.6
		c-19.7-38.8-3.1-85.5,39.9-102.6c27.1-10.8,61.1,0.2,84.2,20.4c-2.2,8.8-11.7,30.6-16.2,34.8c-7.8-18-40.3-21.6-43,3.6
		c-2.1,18.8,28.2,21.3,42.1,6.5c13.9-14.7,28-52.5,41.3-100.5c19.4-70,89.9-125.3,165.5-103.1c94.4,27.6,119.3,132.9,70.7,204.1
		c-30.6,44.8-80.3,66-131.9,63.2c-35.5-2-82.1-18.4-102.1-35.8c9.1-10.9,16-19.8,23.9-32.9c23.2,15.6,64.9,24.2,99,6.4
		C332.9,213.7,339.7,153.3,310,124.5z"/>
	<path class="st0" d="M278.7,21.5c97-46.3,203,6.5,224.4,98.3c24.6,105.7-51.3,184.3-188.6,183.3c76.6-3,145.8-96.3,123.2-181.2
		C415.3,38.6,328.8,8.1,278.7,21.5z"/>
</g>
</svg>
