<?xml version="1.0" encoding="UTF-8" standalone="no"?>
<!-- Generator: Adobe Illustrator 26.0.3, SVG Export Plug-In . SVG Version: 6.00 Build 0)  -->

<svg
   version="1.1"
   id="Layer_1"
   x="0px"
   y="0px"
   viewBox="0 0 512 311.8"
   style="enable-background:new 0 0 512 311.8;"
   xml:space="preserve"
   sodipodi:docname="OpenCilk-icon-512.svg"
   inkscape:version="1.1.2 (1:1.1+202202050950+0a00cf5339)"
   xmlns:inkscape="http://www.inkscape.org/namespaces/inkscape"
   xmlns:sodipodi="http://sodipodi.sourceforge.net/DTD/sodipodi-0.dtd"
   xmlns="http://www.w3.org/2000/svg"
   xmlns:svg="http://www.w3.org/2000/svg"><defs
   id="defs908" /><sodipodi:namedview
   id="namedview906"
   pagecolor="#ffffff"
   bordercolor="#666666"
   borderopacity="1.0"
   inkscape:pageshadow="2"
   inkscape:pageopacity="0.0"
   inkscape:pagecheckerboard="0"
   showgrid="false"
   inkscape:zoom="1.6305638"
   inkscape:cx="235.19472"
   inkscape:cy="189.81165"
   inkscape:window-width="1848"
   inkscape:window-height="1016"
   inkscape:window-x="72"
   inkscape:window-y="27"
   inkscape:window-maximized="1"
   inkscape:current-layer="Layer_1" />
<style
   type="text/css"
   id="style897">
	.st0{fill:#FF00D2;}
</style>
<g
   id="g903">
	<path
   class="st0"
   d="M310,124.5c-24.1-23.4-75.9-23.8-108,57.2c-33.7,85.1-68,114.8-100.9,124.2s-72-3.5-86.8-32.6   c-19.7-38.8-3.1-85.5,39.9-102.6c27.1-10.8,61.1,0.2,84.2,20.4c-2.2,8.8-11.7,30.6-16.2,34.8c-7.8-18-40.3-21.6-43,3.6   c-2.1,18.8,28.2,21.3,42.1,6.5c13.9-14.7,28-52.5,41.3-100.5c19.4-70,89.9-125.3,165.5-103.1c94.4,27.6,119.3,132.9,70.7,204.1   c-30.6,44.8-80.3,66-131.9,63.2c-35.5-2-82.1-18.4-102.1-35.8c9.1-10.9,16-19.8,23.9-32.9c23.2,15.6,64.9,24.2,99,6.4   C332.9,213.7,339.7,153.3,310,124.5z"
   id="path899" />
	<path
   class="st0"
   d="M278.7,21.5c97-46.3,203,6.5,224.4,98.3c24.6,105.7-51.3,184.3-188.6,183.3c76.6-3,145.8-96.3,123.2-181.2   C415.3,38.6,328.8,8.1,278.7,21.5z"
   id="path901"
   style="fill:#fc3dc2;fill-opacity:1" />
</g>
<path
   style="opacity:0.01;fill:#fc3dc2;fill-rule:evenodd;stroke:#ffffff;stroke-width:1.15896;stroke-linejoin:round;stroke-dasharray:3.47689, 1.15896;paint-order:fill markers stroke;fill-opacity:1"
   d="m 69.891156,308.10715 c -17.67857,-1.86039 -34.173592,-9.72327 -45.70403,-21.7863 -6.643118,-6.94996 -10.771502,-14.05415 -14.117733,-24.29401 -8.6589525,-26.49742 -1.4550587,-55.19517 18.716762,-74.56092 8.646411,-8.3009 21.189116,-15.62455 31.622398,-18.46423 21.792756,-5.93144 49.145667,0.76643 71.605247,17.53387 l 6.17287,4.60843 -1.39529,4.08679 c -4.06088,11.89421 -12.66682,29.5381 -14.40743,29.5381 -0.31034,0 -0.73075,-0.52456 -0.93423,-1.16567 -0.66233,-2.08683 -6.47534,-7.41139 -10.03543,-9.19218 -4.92931,-2.4657 -9.30013,-3.35801 -14.516236,-2.96352 -10.044397,0.75966 -16.9341,7.61942 -17.885501,17.80777 -0.916965,9.81958 5.312635,15.6632 17.308425,16.23601 13.583952,0.64865 22.971222,-4.54407 31.457392,-17.40117 4.14686,-6.28276 10.71303,-19.68362 15.14977,-30.91906 4.54797,-11.5171 12.69489,-36.11071 17.36998,-52.43585 5.23261,-18.27192 7.47072,-24.43058 12.92664,-35.57052 7.71593,-15.754405 17.35669,-29.326273 29.28621,-41.227923 20.43006,-20.382322 45.06743,-33.651521 71.62734,-38.57705 8.50807,-1.577821 31.11381,-1.595308 39.42002,-0.03049 42.16264,7.943062 76.3777,32.493314 94.52656,67.825423 24.41628,47.53347 17.80514,106.00955 -16.81981,148.77255 -9.54334,11.78636 -24.74986,25.09481 -36.9521,32.33975 -23.69939,14.07125 -50.32539,21.32267 -78.29329,21.32267 -26.86535,0 -60.50532,-8.23981 -87.74126,-21.49146 -7.92532,-3.85606 -20.62338,-11.61613 -22.18694,-13.55892 -0.51388,-0.63853 0.76013,-2.60832 5.59552,-8.65133 3.44349,-4.30351 8.70753,-11.51577 11.69786,-16.02726 l 5.43696,-8.20271 3.71465,2.11649 c 8.45541,4.81762 21.08618,9.58367 30.42067,11.47882 17.43483,3.53974 36.08512,2.77957 51.76848,-2.11003 14.86939,-4.63582 29.24871,-14.80976 38.52025,-27.25464 6.5806,-8.8329 12.01703,-21.57081 14.00861,-32.82307 1.25488,-7.08994 0.98074,-21.22455 -0.5419,-27.94088 -4.25714,-18.7781 -14.36911,-32.45636 -29.26946,-39.59222 -6.38554,-3.05806 -10.91556,-4.21482 -18.22194,-4.65305 -16.43136,-0.98553 -32.08787,5.75499 -46.21292,19.89583 -12.65627,12.67043 -21.95541,27.93649 -32.04633,52.60926 -16.33916,39.95005 -31.32295,66.63255 -49.063,87.36933 -23.64565,27.63998 -51.921951,40.51943 -82.007784,37.35337 z"
   id="path1121" /><path
   style="opacity:0.01;fill:#fc3dc2;fill-opacity:1;fill-rule:evenodd;stroke:#ffffff;stroke-width:1.15896;stroke-linejoin:round;stroke-dasharray:3.47689, 1.15896;paint-order:fill markers stroke"
   d="m 70.108155,308.12662 c -17.611628,-1.8653 -34.525544,-9.84967 -45.630507,-21.54031 -7.050226,-7.42206 -10.743028,-13.70179 -14.2933,-24.30625 -11.7106532,-34.97904 4.597959,-72.21792 38.878436,-88.77454 7.951195,-3.84023 13.755746,-5.52984 21.87517,-6.36749 20.157794,-2.0796 46.357436,6.83558 64.367306,21.90284 l 2.83574,2.37242 -1.97726,5.48535 c -4.57973,12.70511 -12.11793,27.87024 -13.85359,27.87024 -0.26976,0 -0.66818,-0.55995 -0.8854,-1.24433 -0.67139,-2.11538 -6.33821,-7.27654 -10.00138,-9.10894 -4.929,-2.4656 -9.30822,-3.36267 -14.499116,-2.97008 -10.146644,0.76739 -16.950591,7.51747 -17.907598,17.76582 -0.92135,9.86654 5.285577,15.70603 17.304322,16.27994 13.580582,0.64849 23.017802,-4.57529 31.508392,-17.44082 9.48918,-14.37867 21.12881,-44.09465 31.93404,-81.52759 5.90667,-20.46273 7.92283,-26.05319 13.47293,-37.35819 21.91816,-44.645103 62.55355,-75.131062 107.54002,-80.679941 7.62633,-0.940674 25.73458,-0.432206 33.11045,0.92972 33.40547,6.168181 63.27741,24.007033 82.51155,49.274051 13.0876,17.192579 21.51929,37.52484 25.01854,60.32988 1.46251,9.53136 1.45666,28.29979 -0.0118,37.91426 -4.94451,32.37314 -18.48854,58.77337 -41.87129,81.61615 -19.22501,18.78104 -42.71217,31.39957 -69.51834,37.34886 -14.54126,3.22726 -33.70891,4.47602 -47.83621,3.11649 -32.42595,-3.12047 -72.20714,-16.83011 -92.81814,-31.98757 -3.81792,-2.80772 -4.11605,-3.18123 -3.28909,-4.12078 4.20593,-4.77859 12.75798,-16.1533 17.273,-22.9741 l 5.49245,-8.29736 3.09354,1.82864 c 10.76734,6.36471 24.59179,11.01787 38.97071,13.11712 9.3947,1.37159 25.83163,0.9321 34.46599,-0.92155 20.0199,-4.29792 36.47896,-14.53446 47.86635,-29.76998 6.57995,-8.8035 12.02554,-21.55211 14.02043,-32.82307 1.25487,-7.08994 0.98074,-21.22455 -0.54191,-27.94088 -4.25681,-18.7767 -14.36215,-32.447 -29.26946,-39.59517 -7.8341,-3.75651 -11.5604,-4.52416 -21.77161,-4.48512 -8.04696,0.0308 -9.38836,0.19778 -14.10555,1.75613 -16.67365,5.50826 -29.9101,16.3876 -42.26021,34.73461 -5.93298,8.8139 -10.61439,17.52914 -14.96742,27.86437 -1.84687,4.38499 -5.4894,13.02272 -8.09449,19.19496 -15.59022,36.93789 -33.26927,65.65833 -51.79761,84.14757 -22.16823,22.12147 -47.684423,32.20761 -74.338081,29.38464 z"
   id="path1234" /><path
   style="opacity:0.01;fill:#fc3dc2;fill-opacity:1;fill-rule:evenodd;stroke:#ffffff;stroke-width:1.15896;stroke-linejoin:round;stroke-dasharray:3.47689, 1.15896;paint-order:fill markers stroke"
   d="m 69.914467,308.11802 c -18.210292,-2.20898 -34.345043,-9.85495 -45.436819,-21.53171 -7.013496,-7.38339 -10.755972,-13.72662 -14.219123,-24.10042 -11.771306,-35.26069 4.315263,-72.14162 38.804259,-88.9647 7.89011,-3.84865 13.676185,-5.5373 21.869564,-6.38257 20.516855,-2.11665 46.879462,7.05329 65.294422,22.71193 l 1.9174,1.63041 -2.6528,7.17175 c -4.11143,11.11512 -11.63428,26.15871 -13.05167,26.09967 -0.21781,-0.009 -1.08597,-1.13566 -1.92924,-2.50352 -2.02839,-3.29029 -5.75946,-6.27663 -10.86066,-8.69288 -3.8672,-1.83175 -4.62497,-1.97272 -10.604305,-1.97272 -5.507506,0 -6.854218,0.20625 -9.305045,1.42507 -6.197979,3.08234 -10.04076,8.88855 -10.723794,16.20302 -0.92135,9.86654 5.285577,15.70603 17.304322,16.27994 13.540102,0.64655 23.052312,-4.59603 31.478862,-17.34934 9.45248,-14.30601 21.17026,-44.22742 31.96357,-81.61907 5.67932,-19.67511 7.88693,-25.90019 12.82383,-36.16108 21.75911,-45.224301 62.26451,-75.853157 108.29517,-81.889253 7.03814,-0.922926 25.76702,-0.404218 32.80713,0.908614 23.74923,4.428733 46.0539,14.719863 63.48061,29.289264 41.17967,34.427772 56.10481,91.781365 37.71075,144.912975 -7.05963,20.39189 -17.39152,36.67985 -33.72172,53.16141 -22.75701,22.96795 -49.27319,36.16221 -83.10277,41.35137 -8.78807,1.34801 -26.65743,1.80523 -35.87716,0.91798 -32.38645,-3.11667 -72.23224,-16.84858 -92.81813,-31.98757 -3.79066,-2.78767 -4.11274,-3.18794 -3.31579,-4.12078 7.01222,-8.20793 14.63397,-18.47793 19.74236,-26.60206 l 2.96613,-4.71717 3.13538,1.8492 c 11.40367,6.72573 25.80229,11.43275 41.15902,13.45521 7.88278,1.03815 24.715,0.39516 32.3195,-1.23461 15.58929,-3.34103 28.59181,-9.98459 39.07209,-19.96365 11.86124,-11.29397 19.8905,-26.28765 22.82729,-42.62722 1.25949,-7.00745 0.97707,-21.15202 -0.55789,-27.94088 -4.24178,-18.76069 -14.35723,-32.44627 -29.26608,-39.59517 -7.69839,-3.69144 -11.58638,-4.50808 -21.46497,-4.50857 -9.8915,-4.8e-4 -13.21017,0.73547 -22.22149,4.92784 -20.39041,9.48632 -38.01269,31.19696 -50.74447,62.51715 -5.69158,14.0013 -13.36815,31.31496 -17.94671,40.47679 -26.22262,52.4723 -55.36391,80.8842 -90.253156,87.99418 -7.229052,1.47318 -18.199981,1.99365 -24.897867,1.18117 z"
   id="path1390" /><path
   style="opacity:1;fill:#fc3dc2;fill-opacity:1;fill-rule:evenodd;stroke:none;stroke-width:1.159;stroke-linejoin:round;stroke-dasharray:3.477, 1.159;paint-order:fill markers stroke;stroke-miterlimit:4;stroke-dashoffset:0"
   d="m 74.16856,308.23906 c -0.201102,-0.20121 -5.62246,-0.88072 -11.715941,-1.46847 -0.73095,-0.0705 -1.535886,-0.33517 -1.788747,-0.58815 -0.252861,-0.25298 -1.356676,-0.45997 -2.452923,-0.45997 -1.096246,0 -2.085168,-0.25902 -2.197604,-0.5756 -0.112435,-0.31659 -0.894374,-0.67408 -1.73764,-0.79441 -0.843267,-0.12035 -2.13602,-0.55127 -2.872785,-0.95761 -0.736765,-0.40634 -1.791396,-0.7388 -2.343624,-0.7388 -0.552228,0 -1.418018,-0.41397 -1.923978,-0.91993 -0.50596,-0.50596 -1.452171,-0.91993 -2.102692,-0.91993 -0.650519,0 -1.734719,-0.55195 -2.409332,-1.22657 -0.674614,-0.67461 -1.679107,-1.22656 -2.232208,-1.22656 -0.553101,0 -1.319602,-0.42938 -1.703335,-0.95416 -0.383732,-0.52479 -1.119507,-1.01607 -1.635054,-1.09173 -0.515548,-0.0757 -1.5847,-0.74067 -2.375895,-1.47778 -0.791195,-0.73711 -1.642532,-1.21412 -1.89186,-1.06003 -0.249327,0.15409 -0.903839,-0.40741 -1.454472,-1.24778 -0.550631,-0.84036 -1.282692,-1.52794 -1.626801,-1.52794 -0.758257,0 -8.227861,-7.49033 -8.068376,-8.09076 0.06204,-0.23358 -0.571849,-0.96325 -1.40865,-1.62148 -0.836801,-0.65822 -1.521457,-1.63768 -1.521457,-2.17656 0,-0.53889 -0.551956,-1.32449 -1.226569,-1.74579 -0.674613,-0.42131 -1.22657,-1.23187 -1.22657,-1.80125 0,-0.56938 -0.428891,-1.46413 -0.953091,-1.98833 -0.5242,-0.5242 -1.06759,-1.54763 -1.207532,-2.2743 -0.139942,-0.72666 -0.721279,-1.83705 -1.29186,-2.46754 -0.57058,-0.63048 -0.866132,-1.31762 -0.656781,-1.52697 0.20935,-0.20935 -0.07907,-1.24258 -0.640924,-2.29606 -0.561859,-1.05348 -0.961093,-2.13358 -0.887187,-2.40023 0.07391,-0.26664 -0.185765,-1.08299 -0.577046,-1.81411 -0.3912816,-0.73111 -0.7572627,-1.75485 -0.8132913,-2.27497 -0.1941321,-1.80215 -1.0423183,-5.85626 -1.416787,-6.77188 -0.9700948,-2.37199 -1.0503503,-18.56162 -0.1155271,-23.30482 0.3656332,-1.85519 0.6658166,-4.13201 0.6670743,-5.0596 0.00126,-0.92759 0.2598066,-1.68653 0.5745531,-1.68653 0.3147465,0 0.5722664,-0.94293 0.5722664,-2.0954 0,-1.15246 0.2882406,-2.19147 0.6405346,-2.3089 0.352294,-0.11743 0.680823,-0.89937 0.730065,-1.73764 0.04924,-0.83826 0.585175,-2.17751 1.190963,-2.9761 0.605789,-0.79858 0.94017,-1.71291 0.74307,-2.03182 -0.197101,-0.31891 0.103504,-1.09021 0.668011,-1.71398 0.898546,-0.99288 1.332919,-2.11773 1.499997,-3.88437 0.02581,-0.27289 0.303032,-0.33787 0.616053,-0.14442 0.464762,0.28725 1.421863,-1.41196 1.547219,-2.74688 0.01658,-0.17657 0.641555,-0.97731 1.388831,-1.77941 0.747275,-0.80211 1.232607,-1.66237 1.078514,-1.9117 -0.154093,-0.24933 0.407406,-0.90384 1.247777,-1.45447 0.840371,-0.55064 1.527946,-1.37702 1.527946,-1.83641 0,-0.45939 0.689946,-1.28732 1.533212,-1.83985 0.843267,-0.55253 1.533212,-1.23562 1.533212,-1.51796 0,-0.7951 3.8502,-4.68091 5.117824,-5.16516 0.622311,-0.23774 1.275449,-0.98281 1.45142,-1.65572 0.17597,-0.67291 0.701725,-1.22347 1.168344,-1.22347 0.46662,0 1.46935,-0.62095 2.22829,-1.37989 0.75894,-0.75894 1.577927,-1.37989 1.819972,-1.37989 0.242044,0 1.069979,-0.54734 1.839854,-1.21631 0.769876,-0.66897 1.621441,-1.22093 1.892366,-1.22657 0.270926,-0.006 1.09886,-0.58746 1.839854,-1.29293 0.740995,-0.70547 2.106203,-1.46966 3.033796,-1.69822 0.927593,-0.22855 1.686533,-0.68627 1.686533,-1.01715 0,-0.33088 0.514739,-0.6016 1.143863,-0.6016 0.629124,0 1.83407,-0.54292 2.677656,-1.20648 0.843585,-0.66357 1.689631,-1.05064 1.880101,-0.86017 0.19047,0.19047 1.124355,-0.0594 2.075302,-0.55519 2.313959,-1.2065 5.810083,-2.28444 7.409225,-2.28444 0.715085,0 1.463416,-0.26416 1.662958,-0.58703 0.199543,-0.32286 1.112759,-0.59517 2.02937,-0.60511 0.916611,-0.01 2.965196,-0.0283 4.552408,-0.0407 1.587212,-0.0125 3.02331,-0.24505 3.191332,-0.51691 0.168015,-0.27186 1.629166,-0.37575 3.247006,-0.23087 1.617833,0.14488 3.907439,0.34812 5.088013,0.45165 1.180573,0.10353 3.526387,0.37507 5.21292,0.60343 1.686534,0.22835 3.664475,0.46103 4.395425,0.51705 0.730949,0.0561 1.535886,0.30885 1.788749,0.56183 0.252858,0.25298 1.356672,0.45996 2.452919,0.45996 1.096246,0 2.085168,0.2736 2.197608,0.608 0.112433,0.3344 1.03236,0.66767 2.044283,0.74061 1.01192,0.0729 2.00287,0.36543 2.20211,0.64999 0.19924,0.28456 1.07984,0.59389 1.95689,0.6874 0.87705,0.0935 1.9776,0.48785 2.44566,0.8763 0.46806,0.38846 1.42339,0.79364 2.12296,0.9004 0.69958,0.10676 1.6655,0.52073 2.1465,0.91993 0.481,0.3992 1.40745,0.80714 2.05876,0.90654 0.65131,0.0994 1.86397,0.65684 2.69479,1.23877 0.83082,0.58193 2.00113,1.05805 2.60069,1.05805 0.59956,0 1.09011,0.27381 1.09011,0.60846 0,0.33465 1.03492,1.14816 2.29982,1.80778 1.2649,0.65963 2.98598,1.55873 3.82462,1.998 0.83863,0.43928 1.94255,1.15373 2.45314,1.58769 2.72959,2.3199 4.85836,3.81063 5.4416,3.81063 0.36108,0 0.9419,0.53326 1.29071,1.18504 0.34881,0.65177 1.16412,1.35322 1.81179,1.55878 1.07471,0.3411 1.10189,0.51885 0.31107,2.03471 -0.47657,0.91352 -0.86821,2.12763 -0.87028,2.69801 -0.002,0.57038 -0.27976,1.20762 -0.61707,1.41609 -0.3373,0.20847 -0.62206,0.9837 -0.63278,1.72273 -0.0107,0.73903 -0.4247,1.8794 -0.91993,2.53416 -0.49523,0.65475 -0.90043,1.70938 -0.90043,2.34362 0,0.63424 -0.41396,1.56713 -0.91992,2.07309 -0.50596,0.50596 -0.91993,1.59016 -0.91993,2.40933 0,0.81917 -0.27072,1.48941 -0.6016,1.48941 -0.33088,0 -0.78192,0.75894 -1.0023,1.68653 -0.22038,0.92759 -0.79846,2.14529 -1.28462,2.70599 -0.48617,0.5607 -0.93839,1.39051 -1.00495,1.84401 -0.0666,0.45351 -0.59765,1.50505 -1.1802,2.33675 -0.58255,0.83171 -1.05918,1.82198 -1.05918,2.20061 0,0.37863 -0.55195,1.18793 -1.22657,1.79845 -0.67461,0.61051 -1.22657,1.48122 -1.22657,1.9349 0,0.45368 -0.29226,0.82488 -0.64948,0.82488 -0.35721,0 -0.49221,-0.25446 -0.30001,-0.56546 0.45395,-0.7345 -7.06516,-8.36983 -8.7777,-8.91336 -0.72156,-0.22901 -1.31193,-0.642 -1.31193,-0.91775 0,-1.06071 -6.69885,-2.66089 -12.351241,-2.95037 -4.685729,-0.23999 -6.32691,-0.0957 -7.913606,0.69588 -1.101024,0.54926 -2.330348,0.99866 -2.731828,0.99866 -1.358107,0 -6.974907,5.97735 -8.334252,8.86923 -1.05298,2.24011 -1.35904,4.04582 -1.388937,8.19446 -0.0211,2.92666 0.10297,5.79714 0.275696,6.37883 0.881468,2.96855 6.159961,7.31134 10.043047,8.26273 3.281694,0.80406 7.891694,1.27578 10.265597,1.05043 5.162154,-0.49001 7.246504,-0.80315 7.856834,-1.18036 0.34056,-0.21048 1.3736,-0.51781 2.29563,-0.68296 0.92202,-0.16514 1.76841,-0.56001 1.88084,-0.87748 0.11244,-0.31747 0.61467,-0.57721 1.11607,-0.57721 1.83551,0 8.12763,-5.06319 11.10131,-8.93309 0.76048,-0.98966 2.02441,-2.62733 2.80873,-3.63925 0.78432,-1.01192 1.62417,-2.25382 1.86632,-2.75978 0.24215,-0.50596 1.10833,-2.02384 1.92483,-3.37307 2.21459,-3.65949 8.46195,-16.56748 10.38886,-21.46497 0.92899,-2.36114 2.07407,-5.02552 2.54463,-5.92083 0.47056,-0.89531 0.85556,-2.15101 0.85556,-2.79044 0,-0.63944 0.25665,-1.42479 0.57035,-1.74523 0.51375,-0.52482 2.16351,-4.67542 2.79109,-7.02211 0.45535,-1.70267 1.70496,-5.20431 2.24033,-6.27785 0.29209,-0.58571 0.53108,-1.56543 0.53108,-2.17716 0,-0.61173 0.2405,-1.37441 0.53445,-1.69486 0.29394,-0.32044 1.01149,-2.23849 1.59455,-4.26233 0.58306,-2.02384 1.27702,-4.23166 1.54215,-4.90627 0.5618,-1.42955 2.14643,-6.60365 2.15999,-7.05278 0.005,-0.16865 0.31903,-1.13458 0.69764,-2.1465 0.37861,-1.01192 1.03368,-3.08175 1.4557,-4.59963 1.72959,-6.22079 2.00162,-7.09826 2.51665,-8.1177 0.29589,-0.58571 0.53799,-1.58909 0.53799,-2.22972 0,-0.64063 0.39213,-1.92061 0.8714,-2.84441 0.47927,-0.92379 0.71504,-2.0871 0.52392,-2.58514 -0.19111,-0.49803 -0.0175,-1.10947 0.3859,-1.35876 0.40335,-0.24929 0.77088,-1.11836 0.81673,-1.93128 0.0459,-0.81292 0.44599,-2.0224 0.8892,-2.68774 0.44322,-0.66534 0.80585,-1.66871 0.80585,-2.22972 0,-0.561 0.39984,-1.7907 0.88854,-2.73266 0.48869,-0.94197 0.74708,-1.94156 0.57418,-2.22131 -0.17289,-0.27975 0.11721,-0.9402 0.64467,-1.46767 0.52747,-0.52747 0.95903,-1.51099 0.95903,-2.1856 0,-0.67461 0.41397,-1.64054 0.91993,-2.1465 0.50596,-0.50596 0.91993,-1.59015 0.91993,-2.40933 0,-0.81917 0.27072,-1.4894 0.6016,-1.4894 0.33088,0 0.78693,-0.75894 1.01345,-1.68654 0.22651,-0.92759 0.92171,-2.3447 1.54489,-3.14913 0.62318,-0.80443 1.13305,-1.85906 1.13305,-2.34362 0,-0.48457 0.41397,-1.295 0.91993,-1.80096 0.50596,-0.50596 0.91992,-1.45216 0.91992,-2.10269 0,-0.65052 0.29006,-1.18276 0.64459,-1.18276 0.35451,0 1.02851,-0.918897 1.49777,-2.042 0.46926,-1.123096 1.28312,-2.398789 1.80856,-2.834872 0.52545,-0.436082 0.95536,-1.311043 0.95536,-1.944352 0,-0.633314 0.2819,-1.151479 0.62644,-1.151479 0.34453,0 0.96123,-0.75894 1.37044,-1.686533 0.40921,-0.927593 1.23123,-2.047157 1.82671,-2.487912 0.59548,-0.440763 1.08269,-1.201528 1.08269,-1.690592 0,-0.489064 0.68995,-1.489107 1.53321,-2.222318 0.84327,-0.733211 1.53322,-1.596668 1.53322,-1.918794 0,-0.322126 0.62095,-1.223385 1.37989,-2.002799 3.6522,-3.750727 4.13967,-4.329606 4.13967,-4.91594 0,-0.346337 0.82793,-1.241822 1.83985,-1.989967 1.01192,-0.748145 1.83986,-1.733781 1.83986,-2.190302 0,-0.456521 0.57244,-0.979735 1.27208,-1.162696 0.69965,-0.182962 1.4151,-0.879579 1.58992,-1.54804 0.1748,-0.66846 0.86475,-1.358406 1.53321,-1.533212 0.66845,-0.174806 1.36507,-0.890267 1.54803,-1.589912 0.18296,-0.699646 0.66882,-1.272084 1.07968,-1.272084 0.41087,0 1.47642,-0.75894 2.36789,-1.686533 0.89148,-0.927593 2.46952,-2.376478 3.50676,-3.219745 1.03725,-0.843267 2.52396,-2.154163 3.3038,-2.913103 0.77985,-0.75894 1.72486,-1.379891 2.10004,-1.379891 0.37518,0 1.13266,-0.687575 1.68329,-1.527946 0.55063,-0.840371 1.21362,-1.396635 1.47329,-1.236144 0.25969,0.160492 1.12642,-0.334806 1.9261,-1.10066 0.79967,-0.765854 2.21288,-1.721552 3.14048,-2.123774 0.92759,-0.402222 1.68653,-1.013207 1.68653,-1.357745 0,-0.344538 0.50918,-0.626433 1.13152,-0.626433 0.62233,0 1.63103,-0.551956 2.24154,-1.22657 0.61052,-0.674613 1.46152,-1.226569 1.89111,-1.226569 0.42958,0 1.20996,-0.428891 1.73416,-0.953091 0.5242,-0.5242 1.54763,-1.06759 2.2743,-1.207532 0.72666,-0.139943 1.78809,-0.676975 2.35874,-1.193406 0.57065,-0.516431 1.47907,-0.938965 2.0187,-0.938965 0.53963,0 1.36147,-0.380319 1.82631,-0.845154 0.46483,-0.464835 1.72645,-1.038719 2.80358,-1.275298 1.07714,-0.23658 1.95844,-0.653481 1.95844,-0.926447 0,-0.272967 0.96592,-0.677512 2.14649,-0.898989 1.18058,-0.221476 2.1465,-0.666158 2.1465,-0.98818 0,-0.322022 0.5701,-0.585495 1.26689,-0.585495 0.69679,0 1.82491,-0.298643 2.50693,-0.663651 0.68203,-0.365009 1.96621,-0.79533 2.85373,-0.95627 0.88754,-0.16094 1.95515,-0.576001 2.37248,-0.922358 0.41734,-0.346357 0.97787,-0.500396 1.24563,-0.342308 0.26775,0.158088 1.17677,-0.0028 2.02004,-0.357574 0.84326,-0.354753 2.08516,-0.705023 2.75978,-0.778376 0.67461,-0.07335 2.60646,-0.451696 4.29299,-0.840761 6.41557,-1.480005 9.82775,-1.788826 22.23162,-2.012093 5.48126,-0.09866 9.9659,0.05892 9.96588,0.350187 -3e-5,0.291264 0.89688,0.392329 1.99313,0.224589 1.09625,-0.16774 3.64904,-0.02556 5.67288,0.315961 2.02384,0.341518 4.21895,0.598338 4.87802,0.570711 0.65907,-0.02763 1.487,0.178162 1.83985,0.45731 0.57825,0.457465 2.75527,0.995656 6.16111,1.523118 0.67462,0.104477 1.91652,0.470046 2.75979,0.812375 2.83419,1.150557 5.90365,2.005855 7.19852,2.005855 0.70689,0 1.37724,0.259747 1.48968,0.577214 0.11243,0.317468 0.95831,0.712242 1.87972,0.877276 0.9214,0.165035 2.26398,0.712403 2.98351,1.216375 0.71951,0.503973 1.64628,0.786584 2.05948,0.628026 0.41319,-0.158557 1.10525,0.13824 1.5379,0.65955 0.43264,0.521311 1.44279,0.947838 2.24475,0.947838 0.80197,0 1.45812,0.257381 1.45812,0.571956 0,0.539327 1.57277,1.277251 2.62809,1.233065 0.26488,-0.01109 1.19902,0.544167 2.07588,1.233905 0.87686,0.689737 1.98258,1.254067 2.45715,1.254067 0.47458,0 1.44508,0.542413 2.15667,1.205362 0.71159,0.662949 1.51154,1.070797 1.77765,0.906329 0.26612,-0.164469 1.02245,0.279087 1.68074,0.985678 0.6583,0.706593 1.57167,1.342153 2.02974,1.412358 0.45806,0.07021 1.46274,0.671111 2.23262,1.335347 0.76987,0.664236 1.60428,1.207701 1.85424,1.207701 0.24997,0 1.12099,0.620951 1.93562,1.379891 0.81462,0.75894 1.77668,1.379891 2.13789,1.379891 0.36123,0 1.00147,0.551956 1.42278,1.22657 0.4213,0.674613 1.07959,1.226569 1.46286,1.226569 0.67938,0 1.8669,1.003419 5.26212,4.446315 0.91475,0.927593 1.88347,1.686533 2.15271,1.686533 0.67522,0 9.04989,8.564415 9.04989,9.254928 0,0.306696 0.41397,0.557629 0.91993,0.557629 0.50596,0 0.91992,0.393937 0.91992,0.875415 0,0.481478 0.68995,1.418126 1.53322,2.08144 0.84326,0.663313 1.53321,1.482311 1.53321,1.819996 0,0.337684 0.68518,1.263889 1.52261,2.058233 0.83744,0.794343 1.52739,1.773584 1.53322,2.176091 0.006,0.402507 0.4978,1.092452 1.09329,1.533212 0.59547,0.44076 1.41749,1.560322 1.8267,2.487915 0.40921,0.927593 1.02591,1.686533 1.37045,1.686533 0.34453,0 0.62643,0.499917 0.62643,1.110928 0,0.61101 0.55196,1.703381 1.22657,2.427499 0.67461,0.724111 1.22657,1.566863 1.22657,1.872787 0,0.305919 0.50987,1.21439 1.13305,2.018817 0.62318,0.804428 1.31838,2.221539 1.5449,3.149132 0.22651,0.927593 0.68256,1.686533 1.01344,1.686533 0.33088,0 0.6016,0.514736 0.6016,1.143865 0,0.62912 0.54292,1.83407 1.20649,2.67765 0.66356,0.84359 1.04014,1.70013 0.83685,1.90343 -0.2033,0.20329 0.0455,1.00324 0.55294,1.77765 0.50742,0.77441 1.11868,2.3009 1.35837,3.39221 0.23969,1.09129 0.68986,1.98418 1.00036,1.98418 0.3105,0 0.56456,0.46336 0.56456,1.0297 0,1.33153 1.1132,4.93259 2.21049,7.15061 0.47366,0.95746 0.70927,1.98668 0.52357,2.28715 -0.1857,0.30047 -0.0188,1.14213 0.37096,1.87036 0.38974,0.72823 0.80593,2.04483 0.92488,2.92578 0.38983,2.88727 0.96124,5.8777 1.30214,6.81465 0.18409,0.50596 0.42604,1.60987 0.53766,2.45314 0.11163,0.84326 0.334,2.49913 0.49415,3.67971 1.39427,10.27777 1.41122,24.95205 0.0407,35.26387 -0.17931,1.34923 -0.40664,3.14309 -0.50517,3.98635 -0.0985,0.84327 -0.33874,1.94718 -0.53384,2.45314 -0.33171,0.86028 -0.98849,4.25203 -1.36572,7.05278 -0.0909,0.67461 -0.43977,1.91651 -0.77536,2.75978 -0.33559,0.84327 -0.46823,1.90604 -0.29474,2.36171 0.17348,0.45568 -0.0149,1.03266 -0.41865,1.28219 -0.40374,0.24952 -0.82071,1.1186 -0.92659,1.93128 -0.10589,0.81268 -0.50572,2.2545 -0.88851,3.20405 -0.38279,0.94955 -0.69599,1.95293 -0.69599,2.22972 0,0.27679 -0.39984,1.27395 -0.88854,2.21592 -0.48869,0.94197 -0.74707,1.94155 -0.57418,2.2213 0.17289,0.27975 -0.11721,0.94021 -0.64467,1.46767 -0.52747,0.52747 -0.95903,1.51099 -0.95903,2.1856 0,0.67462 -0.41397,1.64054 -0.91993,2.1465 -0.50596,0.50596 -0.91992,1.59016 -0.91992,2.40933 0,0.81917 -0.25739,1.48941 -0.57196,1.48941 -0.50586,0 -1.63239,2.48503 -1.33039,2.93473 0.0646,0.0962 -0.44684,0.89238 -1.13658,1.76924 -0.68974,0.87686 -1.25407,2.00961 -1.25407,2.51722 0,0.50761 -0.42937,1.23689 -0.95415,1.62063 -0.52479,0.38373 -1.01824,1.1343 -1.09656,1.66793 -0.0783,0.53364 -0.61488,1.44272 -1.19234,2.02018 -0.57747,0.57747 -1.04995,1.4039 -1.04995,1.83651 0,0.43262 -0.68994,1.53103 -1.53321,2.44093 -0.84327,0.9099 -1.53321,2.05412 -1.53321,2.54269 0,0.48858 -0.2819,0.88834 -0.62644,0.88834 -0.34453,0 -0.96425,0.75894 -1.37715,1.68653 -0.4129,0.92759 -1.37553,2.19159 -2.13919,2.80889 -0.76366,0.6173 -1.25022,1.34605 -1.08125,1.61945 0.16897,0.2734 -0.38036,0.94761 -1.22073,1.49824 -0.84037,0.55063 -1.52794,1.37701 -1.52794,1.8364 0,0.4594 -0.68995,1.28733 -1.53322,1.83986 -0.84326,0.55253 -1.53321,1.25184 -1.53321,1.55402 0,0.30218 -2.4838,3.03322 -5.51956,6.06898 -3.03576,3.03576 -5.51957,5.36118 -5.51957,5.1676 0,-0.19359 -0.54544,0.14165 -1.2121,0.74497 -0.66666,0.60332 -1.05993,1.34318 -0.87393,1.64413 0.186,0.30095 -0.48281,0.83339 -1.48623,1.18318 -1.00343,0.3498 -1.97148,1.19836 -2.15122,1.8857 -0.17974,0.68733 -0.59337,1.08496 -0.91916,0.8836 -0.3258,-0.20136 -1.24131,0.31806 -2.03446,1.15427 -0.79315,0.8362 -1.78071,1.52513 -2.19456,1.53096 -0.41386,0.006 -1.20299,0.69817 -1.75362,1.53854 -0.55063,0.84037 -1.21362,1.39664 -1.47329,1.23615 -0.25969,-0.1605 -1.12642,0.3348 -1.9261,1.10065 -0.79967,0.76586 -2.21288,1.72156 -3.14048,2.12378 -0.92759,0.40222 -1.68653,1.01321 -1.68653,1.35774 0,0.34454 -0.5412,0.62644 -1.20267,0.62644 -0.66148,0 -1.6964,0.51306 -2.29982,1.14013 -0.60343,0.62707 -1.85608,1.32227 -2.78368,1.5449 -0.92759,0.22262 -1.68653,0.67548 -1.68653,1.00636 0,0.33088 -0.37675,0.6016 -0.83722,0.6016 -0.46047,0 -1.53892,0.55196 -2.39655,1.22657 -0.85763,0.67461 -2.10296,1.22657 -2.76739,1.22657 -0.66444,0 -1.55163,0.41397 -1.97154,0.91993 -0.41991,0.50596 -1.22889,0.91992 -1.79774,0.91992 -0.56884,0 -1.56996,0.4052 -2.22472,0.90043 -0.65475,0.49523 -1.79513,0.90919 -2.53416,0.91993 -0.73903,0.0107 -1.49492,0.26419 -1.67976,0.56326 -0.18483,0.29907 -1.30503,0.72554 -2.48933,0.94772 -1.1843,0.22217 -2.15327,0.66743 -2.15327,0.98945 0,0.32202 -0.81165,0.58549 -1.80366,0.58549 -0.99201,0 -1.95538,0.24549 -2.14081,0.54553 -0.18544,0.30003 -1.23664,0.68832 -2.33602,0.86286 -1.09937,0.17454 -3.10277,0.64721 -4.452,1.05039 -1.34922,0.40319 -3.48806,0.87182 -4.75296,1.04141 -1.26489,0.1696 -2.29981,0.54424 -2.29981,0.83253 0,0.2883 -0.75894,0.50248 -1.68654,0.47594 -0.92759,-0.0266 -3.20441,0.25577 -5.0596,0.62736 -1.85518,0.37158 -4.61496,0.79719 -6.13284,0.94579 -1.51788,0.14861 -4.41565,0.46839 -6.43949,0.71063 -4.34291,0.51983 -22.20301,0.51097 -27.90446,-0.0138 -3.60827,-0.33213 -9.46962,-1.18487 -13.49227,-1.96292 -0.84326,-0.1631 -2.26915,-0.34594 -3.16864,-0.4063 -0.89948,-0.0603 -1.8424,-0.31673 -2.09538,-0.56971 -0.25298,-0.25298 -1.5016,-0.45997 -2.7747,-0.45997 -1.2731,0 -2.48269,-0.27175 -2.68796,-0.6039 -0.20528,-0.33214 -0.98051,-0.57005 -1.72273,-0.52869 -0.74222,0.0413 -2.14671,-0.24656 -3.12109,-0.63983 -0.97437,-0.39327 -1.9149,-0.57172 -2.09006,-0.39655 -0.17517,0.17516 -0.64776,0.0452 -1.05021,-0.2888 -0.40245,-0.334 -1.53175,-0.66488 -2.50956,-0.73528 -0.97782,-0.0704 -1.91584,-0.31949 -2.08449,-0.55352 -0.16865,-0.23403 -1.16552,-0.56064 -2.21527,-0.72578 -1.04975,-0.16515 -2.50434,-0.61908 -3.23242,-1.00875 -0.72809,-0.38965 -1.55341,-0.56655 -1.83405,-0.39311 -0.28064,0.17345 -1.03388,-0.081 -1.67386,-0.56542 -0.63998,-0.48443 -1.89954,-0.88955 -2.79903,-0.90028 -0.89948,-0.0107 -1.73138,-0.30738 -1.84866,-0.65922 -0.11728,-0.35184 -0.89922,-0.71564 -1.73764,-0.80843 -0.83842,-0.0928 -2.12721,-0.49486 -2.86398,-0.89349 -0.73676,-0.39864 -1.79139,-0.72479 -2.34362,-0.72479 -0.55223,0 -1.41802,-0.41397 -1.92398,-0.91993 -0.50596,-0.50596 -1.47188,-0.91992 -2.1465,-0.91992 -0.67461,0 -1.64053,-0.41397 -2.14649,-0.91993 -0.50596,-0.50596 -1.47189,-0.91993 -2.1465,-0.91993 -0.67461,0 -1.64054,-0.41397 -2.1465,-0.91993 -0.50596,-0.50596 -1.59015,-0.91992 -2.40933,-0.91992 -0.81917,-3e-5 -1.4894,-0.27076 -1.4894,-0.60164 0,-0.33087 -0.75894,-0.78693 -1.68654,-1.01344 -0.92759,-0.22652 -2.3447,-0.92172 -3.14913,-1.5449 -0.80443,-0.62317 -1.83934,-1.13305 -2.29982,-1.13305 -0.46047,0 -0.83722,-0.25738 -0.83722,-0.57195 0,-0.48319 -1.93324,-1.44315 -3.11023,-1.54439 -0.19274,-0.0166 -0.83299,-0.5127 -1.42278,-1.10248 -0.58977,-0.58978 -1.74297,-1.24065 -2.56265,-1.44638 -0.81968,-0.20573 -1.49032,-0.63446 -1.49032,-0.95275 0,-0.31828 -0.80581,-0.8596 -1.79069,-1.20294 -0.98488,-0.34333 -1.94373,-1.02306 -2.13078,-1.51051 -0.18705,-0.48745 -1.0281,-1.14786 -1.869,-1.46756 -1.43906,-0.54713 -1.4824,-0.69191 -0.73748,-2.46354 0.43528,-1.03523 1.39219,-2.30304 2.12647,-2.81735 0.73428,-0.51431 1.33505,-1.18289 1.33505,-1.48574 0,-0.30284 0.62095,-1.21358 1.37989,-2.02386 0.75894,-0.81028 1.87236,-2.13372 2.47425,-2.94098 0.6019,-0.80726 1.9136,-2.57166 2.91489,-3.92089 1.0013,-1.34922 2.25753,-3.00509 2.79162,-3.67971 0.53409,-0.67461 1.2164,-1.84752 1.51624,-2.60646 0.29984,-0.75894 0.80097,-1.37989 1.11363,-1.37989 0.31266,0 0.85709,-0.82793 1.20985,-1.83985 0.35276,-1.01192 0.92646,-1.83986 1.27488,-1.83986 0.34843,0 0.80157,-0.66963 1.00698,-1.48807 0.20542,-0.81845 0.90063,-1.96513 1.54491,-2.54819 0.64427,-0.58306 1.17141,-1.43957 1.17141,-1.90335 0,-0.64929 0.3879,-0.58651 1.68653,0.27295 3.3364,2.20811 7.49668,4.36577 13.0323,6.75899 1.18057,0.5104 2.56047,1.11892 3.06643,1.35226 0.50596,0.23334 2.57579,0.911 4.59963,1.5059 2.02384,0.59491 4.36966,1.31325 5.21292,1.5963 12.62957,4.23935 35.26494,5.04837 49.98271,1.78646 1.68654,-0.37379 3.96591,-0.82728 5.06529,-1.00776 1.09937,-0.18049 2.15057,-0.57365 2.33601,-0.87368 0.18543,-0.30004 0.99452,-0.54553 1.79798,-0.54553 0.80345,0 1.63138,-0.27597 1.83985,-0.61328 0.20847,-0.33731 0.81832,-0.61329 1.35522,-0.61329 0.85648,0 9.99247,-4.33303 13.36361,-6.33812 12.0497,-7.1669 22.68417,-18.93172 28.64125,-31.68553 1.90161,-4.07126 2.62617,-5.79353 4.8498,-11.52795 0.30044,-0.77481 0.54626,-2.03051 0.54626,-2.79044 0,-0.75994 0.23723,-1.64388 0.52717,-1.96433 0.92074,-1.01758 1.97834,-11.09635 1.87867,-17.90343 -0.0844,-5.76646 -0.34522,-8.4792 -1.43019,-14.87664 -0.40756,-2.40314 -1.38448,-5.91917 -1.85712,-6.68391 -0.2365,-0.38266 -0.56511,-1.45013 -0.73026,-2.37216 -0.16514,-0.92202 -0.56001,-1.7684 -0.87748,-1.88084 -0.31747,-0.11244 -0.57721,-0.57272 -0.57721,-1.02286 0,-1.07156 -3.1098,-7.29895 -3.77683,-7.56313 -0.28389,-0.11244 -0.51617,-0.57195 -0.51617,-1.02115 0,-0.79674 -1.34897,-2.63056 -4.13967,-5.6276 -0.75894,-0.81506 -1.37989,-1.71427 -1.37989,-1.99825 0,-0.52942 -7.88536,-7.11848 -10.10831,-8.44657 -0.6806,-0.40662 -3.30729,-1.7592 -5.83709,-3.00574 -4.42686,-2.18129 -5.68946,-2.62037 -11.57659,-4.0259 -3.47205,-0.82894 -19.32737,-0.30744 -22.15408,0.72866 -4.86429,1.78298 -5.84053,2.12228 -6.13285,2.13152 -0.94591,0.0299 -9.50196,4.58137 -13.13642,6.988 -4.68456,3.10197 -18.1411,15.76248 -18.1411,17.06795 0,0.45379 -0.40125,0.97904 -0.89166,1.16724 -0.78227,0.30018 -2.01915,1.95764 -4.37571,5.86356 -0.36725,0.60871 -1.12619,1.61334 -1.68653,2.23251 -0.56034,0.61917 -1.0188,1.34017 -1.0188,1.60222 0,0.26206 -0.68995,1.29642 -1.53322,2.29859 -0.84326,1.00216 -1.53321,2.21491 -1.53321,2.69499 0,0.48008 -0.25457,0.87287 -0.56572,0.87287 -0.31115,0 -0.87862,0.9481 -1.26106,2.10689 -0.38243,1.15879 -0.89383,2.1937 -1.13644,2.29981 -0.24261,0.10612 -1.64233,2.67674 -3.11047,5.7125 -1.46815,3.03576 -3.04799,6.25209 -3.51075,7.1474 -0.46277,0.89531 -0.8414,2.06822 -0.8414,2.60646 0,0.53824 -0.25405,0.97863 -0.56455,0.97863 -0.31051,0 -0.75915,0.89692 -0.99698,1.99317 -0.23783,1.09625 -0.65689,2.13704 -0.93123,2.31288 -0.27434,0.17584 -0.6308,1.04763 -0.79213,1.93731 -0.16133,0.88968 -0.76188,2.33269 -1.33454,3.20669 -0.57266,0.87399 -0.84896,1.58907 -0.614,1.58907 0.23495,0 -0.16978,0.96593 -0.89942,2.1465 -0.72963,1.18057 -1.1436,2.1465 -0.91992,2.1465 0.22367,0 -0.23294,1.03491 -1.01469,2.29981 -0.78175,1.2649 -1.28722,2.3214 -1.12327,2.34777 0.27377,0.044 -0.70262,2.25056 -2.89613,6.54486 -0.47381,0.9276 -0.68784,1.68654 -0.47564,1.68654 0.21221,0 -0.18616,0.72716 -0.88525,1.61592 -0.6991,0.88875 -1.27108,2.26864 -1.27108,3.06642 0,0.79778 -0.27073,1.4505 -0.60161,1.4505 -0.33088,0 -0.79139,0.75621 -1.02337,1.68047 -0.23196,0.92425 -0.78918,2.04787 -1.23825,2.49694 -0.44906,0.44907 -0.81648,1.258 -0.81648,1.79764 0,0.53963 -0.42254,1.44804 -0.93897,2.01869 -0.51643,0.57065 -1.05346,1.63209 -1.19341,2.35875 -0.13994,0.72667 -0.68332,1.7501 -1.20752,2.2743 -0.52421,0.5242 -0.9531,1.39461 -0.9531,1.93424 0,0.53963 -0.43483,1.46164 -0.96629,2.0489 -0.53147,0.58727 -1.02492,1.46713 -1.09656,1.95526 -0.0716,0.48813 -0.60273,1.35999 -1.1802,1.93745 -0.57747,0.57747 -1.04994,1.53941 -1.04994,2.13766 0,0.59824 -0.55196,1.58722 -1.22657,2.19774 -0.67461,0.61052 -1.22657,1.49276 -1.22657,1.96055 0,0.46779 -0.55196,1.44297 -1.22657,2.16708 -0.67461,0.72412 -1.22657,1.81649 -1.22657,2.4275 0,0.61101 -0.2819,1.11093 -0.62643,1.11093 -0.34454,0 -0.96351,0.75894 -1.3755,1.68653 -0.41198,0.92759 -1.22445,2.21129 -1.80549,2.85266 -0.58104,0.64137 -0.9365,1.3602 -0.78991,1.59739 0.14659,0.23719 -0.4149,1.07143 -1.24778,1.85388 -0.83287,0.78244 -1.51431,1.7457 -1.51431,2.14059 0,0.39488 -0.55195,1.21748 -1.22657,1.828 -0.67461,0.61052 -1.23133,1.41223 -1.23716,1.78159 -0.006,0.36935 -0.69577,1.32147 -1.53322,2.11581 -0.83743,0.79435 -1.52261,1.76288 -1.52261,2.15229 0,0.38942 -0.55196,1.05274 -1.22657,1.47405 -0.67461,0.4213 -1.22657,1.07699 -1.22657,1.45708 0,0.3801 -0.62095,1.32914 -1.37989,2.10898 -0.75894,0.77984 -2.06984,2.28104 -2.9131,3.33598 -0.84327,1.05495 -2.29215,2.64883 -3.21975,3.54196 -0.92759,0.89313 -1.68653,1.9442 -1.68653,2.3357 0,0.39151 -0.55122,0.85598 -1.22493,1.03216 -0.67372,0.17618 -1.44428,0.91325 -1.71236,1.63794 -0.26807,0.72469 -1.16574,1.67021 -1.99481,2.10116 -0.82906,0.43095 -1.43637,1.11201 -1.34958,1.51348 0.0868,0.40147 -0.51737,0.98665 -1.3426,1.3004 -0.82523,0.31375 -1.80288,1.13562 -2.17257,1.82638 -0.36968,0.69076 -1.07004,1.25592 -1.55636,1.25592 -0.48632,0 -1.33628,0.68995 -1.88881,1.53322 -0.55253,0.84326 -1.37118,1.53321 -1.81922,1.53321 -0.44803,0 -1.17524,0.51236 -1.616,1.13859 -0.44075,0.62622 -1.42262,1.33485 -2.18192,1.57475 -0.7593,0.23988 -1.67007,0.97715 -2.02394,1.63836 -0.35388,0.66122 -0.88647,1.052 -1.18354,0.8684 -0.29707,-0.1836 -1.28387,0.35545 -2.19288,1.1979 -0.90901,0.84244 -1.85222,1.40844 -2.096,1.25777 -0.2438,-0.15066 -1.02547,0.26847 -1.73706,0.93142 -0.71159,0.66295 -1.6996,1.20537 -2.19557,1.20537 -0.49597,0 -1.33066,0.42888 -1.85486,0.95309 -0.52419,0.5242 -1.53799,1.06573 -2.25287,1.2034 -0.71488,0.13767 -1.66167,0.55065 -2.10397,0.91774 -0.44231,0.36708 -1.58706,0.8077 -2.54389,0.97916 -0.95684,0.17146 -1.83169,0.57148 -1.94413,0.88896 -0.11244,0.31746 -0.94796,0.57721 -1.85672,0.57721 -0.90876,0 -2.22939,0.40422 -2.93475,0.89827 -0.70535,0.49406 -1.42688,0.75387 -1.60338,0.57736 -0.17651,-0.1765 -1.294161,0.0857 -2.483683,0.58274 -1.189521,0.49702 -2.31136,0.75507 -2.492978,0.57345 -0.181618,-0.18161 -0.825076,-0.10376 -1.42991,0.17301 -0.604834,0.27678 -1.789645,0.5722 -2.632911,0.6565 -0.843267,0.0843 -2.913103,0.29958 -4.599636,0.4784 -4.182143,0.44341 -12.619181,0.71558 -12.917882,0.41671 z"
   id="path1503" /></svg>
