<?xml version="1.0" standalone="no"?>
<!DOCTYPE svg PUBLIC "-//W3C//DTD SVG 20010904//EN"
 "http://www.w3.org/TR/2001/REC-SVG-20010904/DTD/svg10.dtd">
<svg version="1.0" xmlns="http://www.w3.org/2000/svg"
 width="512.000000pt" height="512.000000pt" viewBox="0 0 512.000000 512.000000"
 preserveAspectRatio="xMidYMid meet">
<metadata>
Created by potrace 1.14, written by Peter Selinger 2001-2017
</metadata>
<g transform="translate(0.000000,512.000000) scale(0.100000,-0.100000)"
fill="#000000" stroke="none">
<path d="M3448 4075 c-2 -1 -37 -5 -78 -9 -101 -8 -128 -13 -250 -42 -99 -24
-310 -99 -310 -111 0 -4 49 2 105 13 32 7 206 6 257 -1 26 -4 86 -15 135 -26
89 -20 96 -21 123 -32 8 -3 33 -11 55 -17 38 -12 237 -106 280 -132 71 -45
191 -142 255 -207 102 -104 153 -170 221 -286 33 -56 107 -228 114 -264 2 -9
4 -16 5 -16 4 0 37 -141 45 -190 13 -77 12 -281 -1 -379 -43 -327 -213 -665
-455 -905 -94 -93 -234 -201 -294 -226 -16 -7 -33 -17 -37 -21 -5 -4 -46 -24
-92 -45 -83 -37 -206 -72 -296 -84 -71 -10 -61 -16 15 -11 39 3 113 8 165 11
53 3 105 7 115 9 11 2 47 7 80 10 33 4 67 9 75 11 8 2 31 7 50 10 66 11 165
36 250 62 47 15 90 27 95 28 25 5 176 72 245 108 72 37 203 121 265 169 64 49
212 208 262 279 115 167 197 380 220 569 13 114 5 432 -12 459 -2 4 -6 24 -9
46 -21 131 -99 343 -169 460 -180 300 -435 517 -757 646 -179 72 -361 108
-568 113 -56 2 -103 2 -104 1z"/>
<path d="M2868 3845 c-2 -2 -28 -5 -58 -8 -385 -42 -775 -298 -999 -657 -92
-148 -141 -266 -206 -492 -140 -486 -278 -811 -395 -928 -66 -66 -157 -100
-253 -94 -154 10 -212 153 -112 272 84 100 266 78 357 -44 l27 -36 24 39 c36
57 106 214 127 286 8 25 4 31 -58 78 -112 85 -291 163 -427 185 -66 11 -206 8
-265 -5 -79 -18 -225 -92 -295 -148 -132 -108 -237 -281 -263 -438 -9 -53 -9
-220 1 -268 66 -341 345 -556 722 -555 359 0 667 219 938 669 83 137 196 369
267 544 128 319 249 504 411 630 186 145 395 172 579 74 174 -93 277 -277 285
-510 3 -84 0 -116 -21 -215 -15 -76 -83 -210 -142 -283 -126 -154 -320 -259
-527 -286 -71 -9 -202 -9 -255 -1 -25 4 -58 10 -75 12 -91 14 -304 96 -353
136 -7 6 -14 9 -15 7 -34 -56 -117 -174 -169 -241 -38 -47 -68 -88 -68 -91 0
-11 130 -93 217 -136 135 -67 327 -136 461 -166 134 -30 176 -38 282 -50 59
-8 231 -7 305 0 224 22 469 103 645 214 354 222 602 597 656 991 3 25 8 48 11
52 5 10 5 266 -1 293 -2 11 -7 45 -11 75 -22 165 -92 351 -189 503 -102 160
-257 308 -426 407 -138 81 -353 156 -500 175 -53 7 -227 14 -232 10z"/>
</g>
</svg>
